<svg width="491" height="288" viewBox="0 0 491 288" fill="none" xmlns="http://www.w3.org/2000/svg">
<mask id="mask0_58_105" style="mask-type:luminance" maskUnits="userSpaceOnUse" x="135" y="56" width="124" height="169">
<path d="M223.749 222.444C223.749 222.444 223.749 206.559 223.756 206.526C229.527 202.954 234.792 198.233 239.343 192.548C244.865 185.684 249.243 177.528 252.227 168.548C255.211 159.568 256.742 149.942 256.732 140.222H137.993C137.993 160.654 144.64 179.154 155.382 192.548C159.951 198.242 165.233 202.972 171.019 206.555L170.976 222.444H223.749Z" fill="white" stroke="white" stroke-width="4" stroke-linecap="round" stroke-linejoin="round"/>
<path d="M197.363 115.588V74.4444C197.363 70.0831 198.753 65.9004 201.227 62.8165C203.701 59.7325 207.057 58 210.556 58M236.942 115.588V90.8889C236.942 86.5275 238.332 82.3448 240.806 79.2609C243.281 76.177 246.636 74.4444 250.135 74.4444M157.783 115.588V90.8889C157.783 86.5275 159.173 82.3448 161.647 79.2609C164.122 76.177 167.477 74.4444 170.976 74.4444" stroke="white" stroke-width="4" stroke-linecap="round" stroke-linejoin="round"/>
</mask>
<g mask="url(#mask0_58_105)">
<path d="M118.204 41.5554H276.522V238.889H118.204V41.5554Z" fill="#FDD500"/>
</g>
<path d="M0 104V16C0 11.7565 2.58651 7.68687 7.19053 4.68629C11.7945 1.68571 18.0389 0 24.55 0H466.45C472.961 0 479.205 1.68571 483.809 4.68629C488.413 7.68687 491 11.7565 491 16V104C474.722 104 459.111 108.214 447.601 115.716C436.091 123.217 429.625 133.391 429.625 144C429.625 154.609 436.091 164.783 447.601 172.284C459.111 179.786 474.722 184 491 184V272C491 276.243 488.413 280.313 483.809 283.314C479.205 286.314 472.961 288 466.45 288H24.55C18.0389 288 11.7945 286.314 7.19053 283.314C2.58651 280.313 0 276.243 0 272V184C16.2777 184 31.8886 179.786 43.3987 172.284C54.9087 164.783 61.375 154.609 61.375 144C61.375 133.391 54.9087 123.217 43.3987 115.716C31.8886 108.214 16.2777 104 0 104ZM294.6 32H49.1V79.488C67.5422 85.4447 83.0642 94.6408 93.9161 106.039C104.768 117.438 110.518 130.586 110.518 144C110.518 157.414 104.768 170.562 93.9161 181.961C83.0642 193.359 67.5422 202.555 49.1 208.512V256H294.6V32ZM343.7 32V256H441.9V208.512C423.458 202.555 407.936 193.359 397.084 181.961C386.232 170.562 380.482 157.414 380.482 144C380.482 130.586 386.232 117.438 397.084 106.039C407.936 94.6408 423.458 85.4447 441.9 79.488V32H343.7Z" fill="#FDD500"/>
</svg>
