<svg width="491" height="290" viewBox="0 0 491 290" fill="none" xmlns="http://www.w3.org/2000/svg">
<path d="M438.172 231.051C447.857 231.051 455.781 237.683 455.781 245.788C455.781 253.894 447.857 260.526 438.172 260.526C428.487 260.526 420.562 253.894 420.562 245.788C420.562 237.683 428.487 231.051 438.172 231.051ZM438.172 201.577C408.94 201.577 385.343 221.325 385.343 245.788C385.343 270.252 408.94 290 438.172 290C467.403 290 491 270.252 491 245.788C491 221.325 467.403 201.577 438.172 201.577ZM279.687 98.4163H191.64V127.891H279.687V98.4163ZM402.953 83.6791H350.125V113.153H402.953V152.207L341.32 216.314H279.687V142.628H209.249C170.332 142.628 138.812 169.008 138.812 201.577V245.788H174.03C174.03 270.252 197.627 290 226.859 290C256.09 290 279.687 270.252 279.687 245.788H358.929L438.172 162.523V113.153C438.172 105.336 434.461 97.8395 427.856 92.3119C421.252 86.7844 412.294 83.6791 402.953 83.6791ZM226.859 260.526C217.173 260.526 209.249 253.894 209.249 245.788H244.468C244.468 253.894 236.544 260.526 226.859 260.526Z" fill="#FDD500"/>
<mask id="mask0_58_125" style="mask-type:luminance" maskUnits="userSpaceOnUse" x="191" y="0" width="86" height="87">
<path d="M251.889 84.1509C251.889 84.1509 251.889 76.2151 251.893 76.1987C255.831 74.4143 259.424 72.0557 262.53 69.2159C266.297 65.7869 269.285 61.7123 271.321 57.2262C273.357 52.7402 274.402 47.9311 274.395 43.0754H193.373C193.373 53.2827 197.908 62.5247 205.238 69.2159C208.356 72.0602 211.96 74.4234 215.909 76.213L215.879 84.1509H251.889Z" fill="white" stroke="white" stroke-width="4" stroke-linecap="round" stroke-linejoin="round"/>
<path d="M233.884 30.7692V10.2151C233.884 8.03631 234.832 5.94677 236.521 4.40614C238.209 2.86552 240.499 2 242.886 2M260.891 30.7692V18.4302C260.891 16.2514 261.84 14.1619 263.528 12.6212C265.216 11.0806 267.506 10.2151 269.894 10.2151M206.877 30.7692V18.4302C206.877 16.2514 207.825 14.1619 209.514 12.6212C211.202 11.0806 213.492 10.2151 215.879 10.2151" stroke="white" stroke-width="4" stroke-linecap="round" stroke-linejoin="round"/>
</mask>
<g mask="url(#mask0_58_125)">
<path d="M179.87 -6.21521H287.898V92.3658H179.87V-6.21521Z" fill="#FDD500"/>
</g>
<line x1="69.9051" y1="150.869" x2="204.781" y2="150.869" stroke="#FDD500" stroke-width="4"/>
<line x1="32.9553" y1="173.849" x2="222.698" y2="173.849" stroke="#FDD500" stroke-width="4"/>
<line y1="193.832" x2="189.742" y2="193.832" stroke="#FDD500" stroke-width="4"/>
<line x1="32.9553" y1="220.808" x2="222.698" y2="220.808" stroke="#FDD500" stroke-width="4"/>
</svg>
