<svg width="399" height="514" viewBox="0 0 399 514" fill="none" xmlns="http://www.w3.org/2000/svg">
<path fill-rule="evenodd" clip-rule="evenodd" d="M217.49 385.281C225.749 381.011 351 314.238 351 192.75C351 109.953 291.034 42.8334 217.062 42.8334C143.091 42.8334 83.125 109.953 83.125 192.75C83.125 314.238 208.376 381.01 216.635 385.281C216.915 385.426 217.21 385.426 217.49 385.281ZM217.062 257C248.765 257 274.464 228.234 274.464 192.75C274.464 157.266 248.765 128.5 217.062 128.5C185.36 128.5 159.661 157.266 159.661 192.75C159.661 228.234 185.36 257 217.062 257Z" fill="#FDD500"/>
<path d="M333.047 353.25C344.808 363.055 351 374.178 351 385.5C351 396.822 344.808 407.945 333.047 417.75C321.286 427.555 304.371 435.698 284 441.359C263.629 447.02 240.522 450 217 450C193.478 450 170.371 447.02 150 441.359C129.629 435.698 112.714 427.555 100.953 417.75C89.1916 407.945 83 396.822 83 385.5C83 374.178 89.1916 363.055 100.953 353.25" stroke="#FDD500" stroke-width="2" stroke-linecap="round"/>
</svg>
